<mxfile host="app.diagrams.net" modified="2021-02-09T03:13:11.857Z" agent="5.0 (Windows)" etag="qaS9C0KB8Duf40FT4-B5" version="14.3.0" type="github">
  <diagram id="7kg9tQ1YhIIZyVEb-jK0" name="Page-1">
    <mxGraphModel dx="868" dy="451" grid="1" gridSize="10" guides="1" tooltips="1" connect="1" arrows="1" fold="1" page="1" pageScale="1" pageWidth="850" pageHeight="1100" math="0" shadow="0">
      <root>
        <mxCell id="0" />
        <mxCell id="1" parent="0" />
        <mxCell id="rYDwrw0WLnw1IEwL_V4j-1" value="Actor" style="shape=umlActor;verticalLabelPosition=bottom;verticalAlign=top;html=1;outlineConnect=0;" parent="1" vertex="1">
          <mxGeometry x="190" y="180" width="30" height="60" as="geometry" />
        </mxCell>
        <mxCell id="rYDwrw0WLnw1IEwL_V4j-2" value="" style="rounded=0;whiteSpace=wrap;html=1;" parent="1" vertex="1">
          <mxGeometry x="320" y="105" width="156" height="245" as="geometry" />
        </mxCell>
        <mxCell id="rYDwrw0WLnw1IEwL_V4j-3" value="&lt;b&gt;&lt;font style=&quot;font-size: 15px&quot;&gt;Measurement Screen&lt;/font&gt;&lt;/b&gt;" style="text;html=1;align=center;verticalAlign=middle;resizable=0;points=[];autosize=1;" parent="1" vertex="1">
          <mxGeometry x="313" y="80" width="170" height="20" as="geometry" />
        </mxCell>
        <mxCell id="rYDwrw0WLnw1IEwL_V4j-4" value="Look at Measurement Data" style="ellipse;whiteSpace=wrap;html=1;" parent="1" vertex="1">
          <mxGeometry x="338" y="120" width="120" height="70" as="geometry" />
        </mxCell>
        <mxCell id="rYDwrw0WLnw1IEwL_V4j-5" value="Navigate to Next Screen" style="ellipse;whiteSpace=wrap;html=1;" parent="1" vertex="1">
          <mxGeometry x="338" y="197.5" width="120" height="60" as="geometry" />
        </mxCell>
        <mxCell id="rYDwrw0WLnw1IEwL_V4j-6" value="Navigate to Previous Screen" style="ellipse;whiteSpace=wrap;html=1;" parent="1" vertex="1">
          <mxGeometry x="338" y="270" width="120" height="70" as="geometry" />
        </mxCell>
        <mxCell id="rYDwrw0WLnw1IEwL_V4j-7" value="" style="endArrow=classic;html=1;entryX=0;entryY=0.5;entryDx=0;entryDy=0;" parent="1" target="rYDwrw0WLnw1IEwL_V4j-4" edge="1">
          <mxGeometry width="50" height="50" relative="1" as="geometry">
            <mxPoint x="230" y="220" as="sourcePoint" />
            <mxPoint x="330" y="170" as="targetPoint" />
          </mxGeometry>
        </mxCell>
        <mxCell id="rYDwrw0WLnw1IEwL_V4j-8" value="" style="endArrow=classic;html=1;entryX=0;entryY=0.5;entryDx=0;entryDy=0;" parent="1" target="rYDwrw0WLnw1IEwL_V4j-5" edge="1">
          <mxGeometry width="50" height="50" relative="1" as="geometry">
            <mxPoint x="230" y="220" as="sourcePoint" />
            <mxPoint x="280" y="320" as="targetPoint" />
          </mxGeometry>
        </mxCell>
        <mxCell id="rYDwrw0WLnw1IEwL_V4j-9" value="" style="endArrow=classic;html=1;entryX=0;entryY=0.5;entryDx=0;entryDy=0;" parent="1" target="rYDwrw0WLnw1IEwL_V4j-6" edge="1">
          <mxGeometry width="50" height="50" relative="1" as="geometry">
            <mxPoint x="230" y="220" as="sourcePoint" />
            <mxPoint x="230" y="340" as="targetPoint" />
          </mxGeometry>
        </mxCell>
        <mxCell id="rYDwrw0WLnw1IEwL_V4j-10" value="Actor" style="shape=umlActor;verticalLabelPosition=bottom;verticalAlign=top;html=1;outlineConnect=0;" parent="1" vertex="1">
          <mxGeometry x="190" y="480" width="30" height="60" as="geometry" />
        </mxCell>
        <mxCell id="rYDwrw0WLnw1IEwL_V4j-11" value="" style="rounded=0;whiteSpace=wrap;html=1;fillColor=none;" parent="1" vertex="1">
          <mxGeometry x="320" y="405" width="190" height="325" as="geometry" />
        </mxCell>
        <mxCell id="rYDwrw0WLnw1IEwL_V4j-12" value="&lt;b&gt;&lt;font style=&quot;font-size: 15px&quot;&gt;Alarm Screen&lt;/font&gt;&lt;/b&gt;" style="text;html=1;align=center;verticalAlign=middle;resizable=0;points=[];autosize=1;" parent="1" vertex="1">
          <mxGeometry x="343" y="380" width="110" height="20" as="geometry" />
        </mxCell>
        <mxCell id="rYDwrw0WLnw1IEwL_V4j-13" value="Look at Alarm Status" style="ellipse;whiteSpace=wrap;html=1;" parent="1" vertex="1">
          <mxGeometry x="338" y="420" width="120" height="70" as="geometry" />
        </mxCell>
        <mxCell id="rYDwrw0WLnw1IEwL_V4j-14" value="Navigate to Next Screen" style="ellipse;whiteSpace=wrap;html=1;" parent="1" vertex="1">
          <mxGeometry x="338" y="497.5" width="120" height="60" as="geometry" />
        </mxCell>
        <mxCell id="rYDwrw0WLnw1IEwL_V4j-15" value="Navigate to Previous Screen" style="ellipse;whiteSpace=wrap;html=1;" parent="1" vertex="1">
          <mxGeometry x="338" y="570" width="120" height="70" as="geometry" />
        </mxCell>
        <mxCell id="rYDwrw0WLnw1IEwL_V4j-16" value="" style="endArrow=classic;html=1;entryX=0;entryY=0.5;entryDx=0;entryDy=0;" parent="1" target="rYDwrw0WLnw1IEwL_V4j-13" edge="1">
          <mxGeometry width="50" height="50" relative="1" as="geometry">
            <mxPoint x="230" y="520" as="sourcePoint" />
            <mxPoint x="330" y="470" as="targetPoint" />
          </mxGeometry>
        </mxCell>
        <mxCell id="rYDwrw0WLnw1IEwL_V4j-17" value="" style="endArrow=classic;html=1;entryX=0;entryY=0.5;entryDx=0;entryDy=0;" parent="1" target="rYDwrw0WLnw1IEwL_V4j-14" edge="1">
          <mxGeometry width="50" height="50" relative="1" as="geometry">
            <mxPoint x="230" y="520" as="sourcePoint" />
            <mxPoint x="280" y="620" as="targetPoint" />
          </mxGeometry>
        </mxCell>
        <mxCell id="rYDwrw0WLnw1IEwL_V4j-18" value="" style="endArrow=classic;html=1;entryX=0;entryY=0.75;entryDx=0;entryDy=0;" parent="1" edge="1">
          <mxGeometry width="50" height="50" relative="1" as="geometry">
            <mxPoint x="230" y="520" as="sourcePoint" />
            <mxPoint x="352" y="666.7500000000001" as="targetPoint" />
          </mxGeometry>
        </mxCell>
        <mxCell id="rYDwrw0WLnw1IEwL_V4j-19" value="Actor" style="shape=umlActor;verticalLabelPosition=bottom;verticalAlign=top;html=1;outlineConnect=0;" parent="1" vertex="1">
          <mxGeometry x="200" y="940" width="30" height="60" as="geometry" />
        </mxCell>
        <mxCell id="rYDwrw0WLnw1IEwL_V4j-20" value="" style="rounded=0;whiteSpace=wrap;html=1;" parent="1" vertex="1">
          <mxGeometry x="330" y="865" width="156" height="285" as="geometry" />
        </mxCell>
        <mxCell id="rYDwrw0WLnw1IEwL_V4j-21" value="&lt;b&gt;&lt;font style=&quot;font-size: 15px&quot;&gt;Battery On/Off Screen&lt;/font&gt;&lt;/b&gt;" style="text;html=1;align=center;verticalAlign=middle;resizable=0;points=[];autosize=1;" parent="1" vertex="1">
          <mxGeometry x="323" y="840" width="170" height="20" as="geometry" />
        </mxCell>
        <mxCell id="rYDwrw0WLnw1IEwL_V4j-22" value="Look at Battery Status" style="ellipse;whiteSpace=wrap;html=1;" parent="1" vertex="1">
          <mxGeometry x="348" y="880" width="120" height="40" as="geometry" />
        </mxCell>
        <mxCell id="rYDwrw0WLnw1IEwL_V4j-23" value="Navigate to Next Screen" style="ellipse;whiteSpace=wrap;html=1;" parent="1" vertex="1">
          <mxGeometry x="348" y="930" width="120" height="60" as="geometry" />
        </mxCell>
        <mxCell id="rYDwrw0WLnw1IEwL_V4j-24" value="Navigate to Previous Screen" style="ellipse;whiteSpace=wrap;html=1;" parent="1" vertex="1">
          <mxGeometry x="348" y="1000" width="120" height="70" as="geometry" />
        </mxCell>
        <mxCell id="rYDwrw0WLnw1IEwL_V4j-25" value="" style="endArrow=classic;html=1;entryX=0;entryY=0.5;entryDx=0;entryDy=0;" parent="1" target="rYDwrw0WLnw1IEwL_V4j-22" edge="1">
          <mxGeometry width="50" height="50" relative="1" as="geometry">
            <mxPoint x="240" y="980" as="sourcePoint" />
            <mxPoint x="340" y="930" as="targetPoint" />
          </mxGeometry>
        </mxCell>
        <mxCell id="rYDwrw0WLnw1IEwL_V4j-26" value="" style="endArrow=classic;html=1;entryX=0;entryY=0.5;entryDx=0;entryDy=0;" parent="1" target="rYDwrw0WLnw1IEwL_V4j-23" edge="1">
          <mxGeometry width="50" height="50" relative="1" as="geometry">
            <mxPoint x="240" y="980" as="sourcePoint" />
            <mxPoint x="290" y="1080" as="targetPoint" />
          </mxGeometry>
        </mxCell>
        <mxCell id="rYDwrw0WLnw1IEwL_V4j-27" value="" style="endArrow=classic;html=1;entryX=0;entryY=0.5;entryDx=0;entryDy=0;" parent="1" target="rYDwrw0WLnw1IEwL_V4j-24" edge="1">
          <mxGeometry width="50" height="50" relative="1" as="geometry">
            <mxPoint x="240" y="980" as="sourcePoint" />
            <mxPoint x="240" y="1100" as="targetPoint" />
          </mxGeometry>
        </mxCell>
        <mxCell id="rYDwrw0WLnw1IEwL_V4j-28" value="Toggle Battery On/Off" style="ellipse;whiteSpace=wrap;html=1;" parent="1" vertex="1">
          <mxGeometry x="348" y="1080" width="120" height="60" as="geometry" />
        </mxCell>
        <mxCell id="rYDwrw0WLnw1IEwL_V4j-29" value="" style="endArrow=classic;html=1;entryX=0;entryY=0.5;entryDx=0;entryDy=0;" parent="1" target="rYDwrw0WLnw1IEwL_V4j-28" edge="1">
          <mxGeometry width="50" height="50" relative="1" as="geometry">
            <mxPoint x="240" y="980" as="sourcePoint" />
            <mxPoint x="348" y="1035" as="targetPoint" />
          </mxGeometry>
        </mxCell>
        <mxCell id="rYDwrw0WLnw1IEwL_V4j-30" value="Actor" style="shape=umlActor;verticalLabelPosition=bottom;verticalAlign=top;html=1;outlineConnect=0;" parent="1" vertex="1">
          <mxGeometry x="590" y="120" width="30" height="60" as="geometry" />
        </mxCell>
        <mxCell id="rYDwrw0WLnw1IEwL_V4j-31" value="Actor" style="shape=umlActor;verticalLabelPosition=bottom;verticalAlign=top;html=1;outlineConnect=0;" parent="1" vertex="1">
          <mxGeometry x="600" y="490" width="30" height="60" as="geometry" />
        </mxCell>
        <mxCell id="rYDwrw0WLnw1IEwL_V4j-32" value="Actor" style="shape=umlActor;verticalLabelPosition=bottom;verticalAlign=top;html=1;outlineConnect=0;" parent="1" vertex="1">
          <mxGeometry x="610" y="977.5" width="30" height="60" as="geometry" />
        </mxCell>
        <mxCell id="rYDwrw0WLnw1IEwL_V4j-33" value="Battery" style="text;html=1;align=center;verticalAlign=middle;resizable=0;points=[];autosize=1;" parent="1" vertex="1">
          <mxGeometry x="580" y="90" width="50" height="20" as="geometry" />
        </mxCell>
        <mxCell id="rYDwrw0WLnw1IEwL_V4j-34" value="User" style="text;html=1;align=center;verticalAlign=middle;resizable=0;points=[];autosize=1;" parent="1" vertex="1">
          <mxGeometry x="185" y="150" width="40" height="20" as="geometry" />
        </mxCell>
        <mxCell id="rYDwrw0WLnw1IEwL_V4j-35" value="Contactor" style="text;html=1;align=center;verticalAlign=middle;resizable=0;points=[];autosize=1;" parent="1" vertex="1">
          <mxGeometry x="590" y="950" width="70" height="20" as="geometry" />
        </mxCell>
        <mxCell id="rYDwrw0WLnw1IEwL_V4j-36" value="Alarm" style="text;html=1;align=center;verticalAlign=middle;resizable=0;points=[];autosize=1;" parent="1" vertex="1">
          <mxGeometry x="590" y="460" width="50" height="20" as="geometry" />
        </mxCell>
        <mxCell id="rYDwrw0WLnw1IEwL_V4j-37" value="" style="endArrow=classic;html=1;entryX=1;entryY=0.5;entryDx=0;entryDy=0;" parent="1" target="rYDwrw0WLnw1IEwL_V4j-4" edge="1">
          <mxGeometry width="50" height="50" relative="1" as="geometry">
            <mxPoint x="580" y="150" as="sourcePoint" />
            <mxPoint x="770" y="190" as="targetPoint" />
          </mxGeometry>
        </mxCell>
        <mxCell id="rYDwrw0WLnw1IEwL_V4j-38" value="" style="endArrow=classic;html=1;entryX=1;entryY=0.5;entryDx=0;entryDy=0;" parent="1" target="rYDwrw0WLnw1IEwL_V4j-13" edge="1">
          <mxGeometry width="50" height="50" relative="1" as="geometry">
            <mxPoint x="600" y="525" as="sourcePoint" />
            <mxPoint x="468" y="470" as="targetPoint" />
          </mxGeometry>
        </mxCell>
        <mxCell id="rYDwrw0WLnw1IEwL_V4j-39" value="" style="endArrow=classic;html=1;entryX=1;entryY=0.5;entryDx=0;entryDy=0;" parent="1" edge="1">
          <mxGeometry width="50" height="50" relative="1" as="geometry">
            <mxPoint x="600" y="1010" as="sourcePoint" />
            <mxPoint x="468" y="1110" as="targetPoint" />
          </mxGeometry>
        </mxCell>
        <mxCell id="rYDwrw0WLnw1IEwL_V4j-40" value="" style="endArrow=classic;html=1;" parent="1" edge="1">
          <mxGeometry width="50" height="50" relative="1" as="geometry">
            <mxPoint x="600" y="1010" as="sourcePoint" />
            <mxPoint x="468" y="900" as="targetPoint" />
          </mxGeometry>
        </mxCell>
        <mxCell id="rYDwrw0WLnw1IEwL_V4j-41" value="Actor" style="shape=umlActor;verticalLabelPosition=bottom;verticalAlign=top;html=1;outlineConnect=0;" parent="1" vertex="1">
          <mxGeometry x="600" y="255" width="30" height="60" as="geometry" />
        </mxCell>
        <mxCell id="rYDwrw0WLnw1IEwL_V4j-42" value="Measurement" style="text;html=1;align=center;verticalAlign=middle;resizable=0;points=[];autosize=1;" parent="1" vertex="1">
          <mxGeometry x="570" y="225" width="90" height="20" as="geometry" />
        </mxCell>
        <mxCell id="rYDwrw0WLnw1IEwL_V4j-43" value="" style="endArrow=classic;html=1;entryX=1;entryY=0.5;entryDx=0;entryDy=0;" parent="1" target="rYDwrw0WLnw1IEwL_V4j-4" edge="1">
          <mxGeometry width="50" height="50" relative="1" as="geometry">
            <mxPoint x="600" y="290" as="sourcePoint" />
            <mxPoint x="458" y="220" as="targetPoint" />
          </mxGeometry>
        </mxCell>
        <mxCell id="rYDwrw0WLnw1IEwL_V4j-44" value="Alarm Acknowledgement " style="ellipse;whiteSpace=wrap;html=1;" parent="1" vertex="1">
          <mxGeometry x="343" y="650" width="120" height="70" as="geometry" />
        </mxCell>
        <mxCell id="rYDwrw0WLnw1IEwL_V4j-45" value="" style="endArrow=classic;html=1;" parent="1" target="rYDwrw0WLnw1IEwL_V4j-11" edge="1">
          <mxGeometry width="50" height="50" relative="1" as="geometry">
            <mxPoint x="230" y="520" as="sourcePoint" />
            <mxPoint x="333" y="615" as="targetPoint" />
          </mxGeometry>
        </mxCell>
      </root>
    </mxGraphModel>
  </diagram>
</mxfile>
